<?xml version="1.0" encoding="UTF-8" standalone="no"?>
<svg xmlns="http://www.w3.org/2000/svg" version="1.2" baseProfile="tiny" viewBox="0.00 0.00 464.00 124.00" width="464.00" height="124.00">
<g fill="#ffffff">
<rect x="-6.46" y="-18.93" transform="translate(83.53,54.93) rotate(-0.1)" width="12.92" height="37.86" rx="3.52"/>
<path d="
  M 276.53 65.73
  Q 281.70 68.68 282.87 74.62
  Q 284.46 82.74 278.11 88.59
  C 272.40 93.83 267.49 94.66 260.00 95.09
  C 256.64 95.29 253.64 95.32 253.13 91.25
  C 252.63 87.25 251.68 80.75 257.75 81.06
  Q 261.27 81.25 265.54 80.78
  C 270.89 80.20 271.11 74.63 266.42 72.84
  Q 264.33 72.05 262.00 72.02
  Q 254.64 71.92 245.47 71.97
  A 3.24 3.24 0.0 0 1 242.21 68.79
  Q 241.99 58.10 242.02 47.10
  C 242.05 36.77 242.43 35.95 252.57 35.79
  C 265.53 35.58 281.48 37.83 282.72 53.20
  Q 283.02 56.87 280.67 60.53
  C 279.66 62.11 277.80 63.49 276.42 65.08
  Q 276.08 65.47 276.53 65.73
  Z
  M 255.99 50.16
  L 255.99 58.10
  A 0.98 0.98 0.0 0 0 256.97 59.08
  L 261.35 59.08
  A 7.80 4.22 -0.0 0 0 269.15 54.86
  L 269.15 53.40
  A 7.80 4.22 0.0 0 0 261.35 49.18
  L 256.97 49.18
  A 0.98 0.98 0.0 0 0 255.99 50.16
  Z"
/>
<path d="
  M 317.56 53.67
  C 319.37 50.76 321.97 47.44 325.65 46.88
  C 328.41 46.46 334.53 46.36 335.79 49.43
  A 0.96 0.95 -39.0 0 1 335.69 50.34
  L 324.93 65.38
  A 4.01 3.98 64.0 0 0 324.20 67.52
  Q 323.75 79.14 323.92 91.38
  C 323.98 96.33 315.70 95.26 312.74 94.71
  C 310.81 94.35 310.05 93.09 310.07 91.25
  Q 310.19 81.37 309.93 71.50
  C 309.82 67.54 309.60 66.19 307.21 62.88
  Q 298.79 51.22 290.45 39.53
  Q 290.13 39.08 290.50 38.67
  C 293.96 34.85 302.03 34.54 305.25 38.53
  Q 310.93 45.58 316.00 53.68
  A 0.92 0.92 0.0 0 0 317.56 53.67
  Z"
/>
<path d="
  M 346.14 48.97
  A 3.12 3.12 0.0 0 1 343.02 45.85
  L 343.01 41.79
  A 5.82 5.70 89.9 0 1 348.70 35.96
  L 374.20 35.92
  A 5.82 5.70 89.9 0 1 379.91 41.73
  L 379.92 45.79
  A 3.12 3.12 0.0 0 1 376.80 48.91
  L 346.14 48.97
  Z"
/>
<path d="
  M 48.14 72.65
  Q 47.71 81.57 48.04 90.50
  C 48.23 95.86 42.11 95.46 38.68 94.99
  C 34.81 94.46 35.10 91.78 35.07 88.60
  Q 34.88 64.17 35.07 39.69
  Q 35.10 36.08 38.71 36.03
  Q 49.82 35.90 60.88 36.07
  C 64.96 36.13 64.39 44.46 63.95 46.78
  C 63.34 50.04 61.05 49.94 58.27 49.97
  Q 53.43 50.02 48.55 50.01
  Q 48.00 50.01 48.00 50.57
  L 48.02 58.34
  A 0.65 0.65 0.0 0 0 48.66 58.99
  Q 57.39 59.05 65.98 58.94
  Q 67.93 58.91 69.68 59.65
  Q 70.16 59.85 70.28 60.36
  C 70.91 62.84 72.27 72.05 67.75 72.01
  Q 58.27 71.92 48.76 72.04
  Q 48.16 72.05 48.14 72.65
  Z"
/>
<path d="
  M 399.00 50.75
  L 398.99 57.98
  A 1.04 1.03 89.7 0 0 400.03 59.02
  Q 409.21 58.93 418.63 59.07
  C 423.07 59.14 422.54 67.46 421.44 70.20
  Q 420.78 71.85 418.50 71.87
  Q 409.00 71.95 399.49 72.04
  Q 398.98 72.05 398.98 72.56
  L 399.03 80.30
  A 0.67 0.66 -90.0 0 0 399.69 80.97
  Q 405.57 81.00 411.23 81.10
  C 412.94 81.13 414.23 81.78 414.67 83.56
  C 415.29 86.05 416.20 94.81 411.88 94.91
  Q 400.29 95.18 389.04 94.87
  A 3.16 3.16 0.0 0 1 385.97 91.70
  L 386.07 39.07
  A 3.07 3.06 -0.2 0 1 389.12 36.01
  Q 399.27 35.94 409.99 36.04
  Q 412.37 36.06 413.95 36.90
  A 1.27 1.26 9.2 0 1 414.59 37.78
  C 415.41 42.04 416.98 50.45 409.48 50.20
  Q 404.64 50.04 399.76 49.99
  A 0.76 0.76 0.0 0 0 399.00 50.75
  Z"
/>
<rect x="-6.52" y="-19.40" transform="translate(361.48,75.56) rotate(-0.1)" width="13.04" height="38.80" rx="3.51"/>
<path d="
  M 180.97 85.94
  C 180.23 87.65 177.90 91.22 176.33 93.43
  A 1.02 1.02 0.0 0 1 174.64 93.38
  L 168.35 83.38
  Q 168.07 82.93 168.32 82.45
  C 170.31 78.65 177.78 78.75 180.78 79.92
  A 1.10 1.10 0.0 0 1 181.44 80.71
  Q 181.99 83.58 180.97 85.94
  Z"
/>
<rect x="77.02" y="81.02" width="33.00" height="13.96" rx="3.85"/>
</g>
<g fill="#ff5757">
<path d="
  M 138.98 38.53
  C 147.69 37.02 157.91 39.59 163.80 46.64
  Q 167.02 50.49 169.08 56.24
  Q 173.27 67.99 166.64 79.98
  Q 160.44 91.20 147.75 92.47
  C 131.05 94.15 118.82 84.37 118.12 67.40
  C 117.54 53.43 124.45 41.05 138.98 38.53
  Z
  M 144.0450 83.7298
  A 18.15 16.39 90.3 0 0 160.5298 65.6658
  A 18.15 16.39 90.3 0 0 144.2350 47.4302
  A 18.15 16.39 90.3 0 0 127.7502 65.4942
  A 18.15 16.39 90.3 0 0 144.0450 83.7298
  Z"
/>
<path d="
  M 233.46 66.74
  C 232.85 85.14 217.23 96.47 199.49 91.81
  C 183.05 87.50 177.51 68.86 183.05 54.02
  C 187.84 41.16 200.95 36.02 213.82 38.93
  C 226.81 41.87 233.90 53.60 233.46 66.74
  Z
  M 206.9817 83.7193
  A 18.14 16.40 90.5 0 0 223.5394 65.7231
  A 18.14 16.40 90.5 0 0 207.2983 47.4407
  A 18.14 16.40 90.5 0 0 190.7406 65.4369
  A 18.14 16.40 90.5 0 0 206.9817 83.7193
  Z"
/>
<ellipse cx="0.00" cy="0.00" transform="translate(144.07,65.67) rotate(71.6)" rx="5.06" ry="4.73"/>
<circle cx="207.07" cy="65.69" r="4.90"/>
</g>
</svg>
