<?xml version="1.0" encoding="UTF-8" standalone="no"?>
<!DOCTYPE svg PUBLIC "-//W3C//DTD SVG 1.1//EN" "http://www.w3.org/Graphics/SVG/1.1/DTD/svg11.dtd">
<svg xmlns="http://www.w3.org/2000/svg" version="1.1" viewBox="0.00 0.00 464.00 124.00" width="464.00" height="124.00">
<path fill="#000000" d="
  M 274.57 65.89
  C 276.05 66.58 277.47 66.86 278.56 68.10
  C 287.57 78.37 279.45 90.91 267.82 93.11
  Q 261.95 94.22 255.64 93.94
  A 1.62 1.62 0.0 0 1 254.09 92.34
  L 254.00 84.15
  A 1.89 1.88 0.1 0 1 255.92 82.25
  Q 260.39 82.34 265.24 81.92
  C 271.40 81.39 273.07 74.06 266.72 71.91
  C 260.81 69.90 250.92 71.00 244.66 70.73
  A 1.63 1.63 0.0 0 1 243.09 69.12
  Q 242.92 54.66 242.98 41.25
  C 242.99 38.61 244.40 37.22 247.08 37.03
  Q 258.76 36.19 268.56 38.41
  C 281.36 41.32 287.63 58.15 274.55 65.13
  A 0.42 0.42 0.0 0 0 274.57 65.89
  Z
  M 255.03 48.71
  L 254.97 59.39
  A 0.70 0.70 0.0 0 0 255.67 60.09
  L 261.01 60.12
  A 9.16 5.63 0.3 0 0 270.20 54.54
  L 270.20 53.72
  A 9.16 5.63 0.3 0 0 261.07 48.04
  L 255.73 48.01
  A 0.70 0.70 0.0 0 0 255.03 48.71
  Z"
/>
<path fill="#000000" d="
  M 334.72 50.54
  C 331.41 54.89 322.75 64.58 322.89 70.06
  Q 323.15 80.64 322.95 90.98
  Q 322.89 93.96 319.92 93.88
  L 312.19 93.69
  A 1.00 1.00 0.0 0 1 311.21 92.72
  Q 310.84 80.90 311.03 68.84
  C 311.07 66.64 310.19 65.69 308.98 64.01
  Q 300.18 51.76 291.65 39.92
  A 1.18 1.17 -30.7 0 1 292.10 38.18
  Q 297.34 35.68 303.04 37.37
  Q 303.61 37.54 303.96 38.02
  L 315.51 53.89
  A 1.79 1.79 0.0 0 0 318.52 53.73
  C 322.40 46.91 326.82 47.06 333.88 48.37
  A 1.36 1.36 0.0 0 1 334.72 50.54
  Z"
/>
<path fill="#000000" d="
  M 37.59 93.67
  A 1.64 1.64 0.0 0 1 36.00 92.03
  L 36.00 39.50
  A 2.51 2.50 -90.0 0 1 38.50 36.99
  L 60.81 37.01
  Q 63.05 37.01 63.01 39.25
  L 62.87 47.80
  A 0.76 0.76 0.0 0 1 62.31 48.52
  C 58.01 49.68 52.02 48.94 47.49 49.05
  Q 47.00 49.06 47.00 49.55
  L 47.00 59.35
  Q 47.00 59.95 47.60 59.96
  L 68.51 60.09
  A 1.43 1.42 90.0 0 1 69.92 61.51
  L 69.99 68.90
  A 1.92 1.91 89.5 0 1 68.10 70.83
  L 47.46 71.07
  A 0.47 0.46 90.0 0 0 47.00 71.54
  L 47.00 91.76
  A 2.17 2.17 0.0 0 1 44.75 93.93
  L 37.59 93.67
  Z"
/>
<rect fill="#000000" x="78.00" y="37.02" width="11.00" height="35.96" rx="2.40"/>
<path fill="#000000" d="
  M 346.28 47.97
  A 2.44 2.44 0.0 0 1 343.84 45.53
  L 343.84 41.44
  A 4.59 4.47 -0.0 0 1 348.43 36.97
  L 374.39 36.97
  A 4.59 4.47 -0.0 0 1 378.98 41.44
  L 378.98 45.53
  A 2.44 2.44 0.0 0 1 376.54 47.97
  L 346.28 47.97
  Z"
/>
<path fill="#000000" d="
  M 387.51 37.62
  Q 387.59 37.37 387.85 37.35
  Q 398.97 36.73 410.25 37.07
  Q 412.11 37.12 413.19 37.36
  A 0.88 0.87 -84.7 0 1 413.89 38.21
  L 413.97 47.10
  Q 413.99 48.69 412.40 48.73
  L 398.70 49.08
  A 0.72 0.72 0.0 0 0 398.00 49.80
  L 398.00 59.33
  Q 398.00 59.91 398.58 59.92
  L 419.48 60.23
  A 1.51 1.50 0.4 0 1 420.97 61.73
  L 420.97 68.85
  A 2.08 2.08 0.0 0 1 418.90 70.93
  L 398.73 71.03
  A 0.74 0.73 90.0 0 0 398.00 71.77
  L 398.00 81.48
  A 0.49 0.48 -90.0 0 0 398.48 81.97
  L 411.98 82.06
  Q 414.06 82.08 414.02 84.16
  L 413.83 92.77
  A 1.17 1.17 0.0 0 1 412.66 93.92
  L 388.89 93.88
  Q 387.02 93.87 387.01 91.99
  Q 386.98 65.27 387.15 39.50
  Q 387.15 38.72 387.51 37.62
  Z"
/>
<path fill="#ff5757" d="
  M 118.34 60.14
  C 124.51 24.36 178.40 34.88 169.62 72.66
  C 165.76 89.29 149.09 96.89 133.34 90.93
  C 121.56 86.47 116.27 72.13 118.34 60.14
  Z
  M 144.0254 83.6498
  A 18.06 16.39 90.3 0 0 160.5098 65.6758
  A 18.06 16.39 90.3 0 0 144.2146 47.5302
  A 18.06 16.39 90.3 0 0 127.7302 65.5042
  A 18.06 16.39 90.3 0 0 144.0254 83.6498
  Z"
/>
<path fill="#ff5757" d="
  M 208.73 38.28
  C 241.04 39.69 241.52 89.41 210.59 92.69
  C 171.98 96.78 170.67 36.62 208.73 38.28
  Z
  M 207.0055 83.6198
  A 18.05 16.40 90.3 0 0 223.4998 65.6559
  A 18.05 16.40 90.3 0 0 207.1945 47.5202
  A 18.05 16.40 90.3 0 0 190.7002 65.4841
  A 18.05 16.40 90.3 0 0 207.0055 83.6198
  Z"
/>
<rect fill="#000000" x="356.00" y="57.03" width="11.00" height="36.94" rx="2.41"/>
<circle fill="#ff5757" cx="144.11" cy="65.64" r="4.99"/>
<circle fill="#ff5757" cx="207.11" cy="65.72" r="5.02"/>
<path fill="#000000" d="
  M 180.86 80.71
  L 181.18 80.53
  A 0.37 0.37 0.0 0 1 181.65 81.09
  Q 180.43 82.49 180.66 84.26
  A 0.57 0.55 56.9 0 1 180.59 84.63
  L 176.21 92.23
  A 0.73 0.73 0.0 0 1 174.96 92.25
  L 169.78 84.04
  A 1.87 1.87 0.0 0 1 170.62 81.32
  Q 175.29 79.30 180.09 80.80
  Q 180.50 80.93 180.86 80.71
  Z"
/>
<rect fill="#000000" x="-15.42" y="-5.94" transform="translate(93.51,87.97) rotate(-0.1)" width="30.84" height="11.88" rx="1.98"/>
</svg>
