<?xml version="1.0" encoding="UTF-8" standalone="no"?>
<!DOCTYPE svg PUBLIC "-//W3C//DTD SVG 1.1//EN" "http://www.w3.org/Graphics/SVG/1.1/DTD/svg11.dtd">
<svg xmlns="http://www.w3.org/2000/svg" version="1.1" viewBox="0.00 0.00 120.00 63.00" width="120.00" height="63.00">
<path fill="#ff5757" d="
  M 10.44 14.69
  C 16.92 6.01 30.47 4.05 39.93 8.05
  C 58.64 15.95 59.21 47.21 40.85 55.47
  C 30.58 60.09 16.98 58.22 9.98 48.70
  C 2.67 38.76 2.97 24.69 10.44 14.69
  Z
  M 29.7998 49.2587
  A 17.17 15.49 89.3 0 0 45.0788 31.9008
  A 17.17 15.49 89.3 0 0 29.3802 14.9213
  A 17.17 15.49 89.3 0 0 14.1012 32.2792
  A 17.17 15.49 89.3 0 0 29.7998 49.2587
  Z"
/>
<path fill="#ff5757" d="
  M 88.4970 58.1852
  A 26.20 25.14 91.1 0 1 63.8646 31.5074
  A 26.20 25.14 91.1 0 1 89.5030 5.7948
  A 26.20 25.14 91.1 0 1 114.1354 32.4726
  A 26.20 25.14 91.1 0 1 88.4970 58.1852
  Z
  M 88.8695 49.2891
  A 17.24 15.51 90.6 0 0 104.5591 32.2124
  A 17.24 15.51 90.6 0 0 89.2305 14.8109
  A 17.24 15.51 90.6 0 0 73.5409 31.8876
  A 17.24 15.51 90.6 0 0 88.8695 49.2891
  Z"
/>
<circle fill="#ff5757" cx="29.47" cy="32.08" r="4.81"/>
<circle fill="#ff5757" cx="88.98" cy="32.11" r="4.71"/>
<path fill="#3d3d3d" d="
  M 65.06 46.62
  L 59.47 56.63
  A 0.58 0.58 0.0 0 1 58.47 56.66
  L 52.36 46.95
  A 0.58 0.58 0.0 0 1 52.84 46.06
  L 64.54 45.76
  A 0.58 0.58 0.0 0 1 65.06 46.62
  Z"
/>
</svg>
